<svg width="569" height="99" viewBox="0 0 569 99" fill="none" xmlns="http://www.w3.org/2000/svg">
<path fill-rule="evenodd" clip-rule="evenodd" d="M87 28.7258C87 12.861 74.3535 0 58.7533 0H31.6364C29.1403 0 27.1169 2.05776 27.1169 4.59613V24.1297C27.1169 26.668 25.0934 28.7258 22.5974 28.7258H4.51948C2.02344 28.7258 0 30.7835 0 33.3219V79.2832L20.7416 97.8453C23.6611 100.458 28.2468 98.3498 28.2468 94.3949V79.2832H58.7533C74.3535 79.2832 87 66.4222 87 50.5574V28.7258ZM28.2468 79.2832V33.3219C28.2468 30.7835 30.2702 28.7258 32.7662 28.7258H54.2338C56.7298 28.7258 58.7533 30.7835 58.7533 33.3219V50.5574C58.7533 53.0957 56.7298 55.1535 54.2338 55.1535H44.428C42.8061 55.1535 41.3086 56.0373 40.5039 57.4693L28.2468 79.2832ZM315.367 78.55C320.701 78.55 325.467 77.2834 329.667 74.75C333.867 72.2167 337.167 68.7834 339.567 64.45C342.034 60.1167 343.267 55.3167 343.267 50.05C343.267 44.7167 342.034 39.9167 339.567 35.65C337.101 31.3167 333.767 27.8834 329.567 25.35C325.367 22.8167 320.667 21.55 315.467 21.55C308.867 21.55 303.634 23.4834 299.767 27.35V1.65002H284.767V77.35H298.767V72.15C300.701 74.2167 303.101 75.8167 305.967 76.95C308.901 78.0167 312.034 78.55 315.367 78.55ZM313.567 65.05C309.501 65.05 306.167 63.6834 303.567 60.95C301.034 58.15 299.767 54.5167 299.767 50.05C299.767 45.65 301.034 42.05 303.567 39.25C306.167 36.45 309.501 35.05 313.567 35.05C317.701 35.05 321.101 36.4834 323.767 39.35C326.434 42.15 327.767 45.7167 327.767 50.05C327.767 54.45 326.434 58.05 323.767 60.85C321.101 63.65 317.701 65.05 313.567 65.05ZM264.634 74.95C260.434 77.35 255.534 78.55 249.934 78.55C244.134 78.55 239.101 77.2834 234.834 74.75C230.568 72.15 227.268 68.6834 224.934 64.35C222.601 60.0167 221.434 55.2167 221.434 49.95C221.434 44.4834 222.634 39.6167 225.034 35.35C227.501 31.0834 230.801 27.7167 234.934 25.25C239.068 22.7834 243.734 21.55 248.934 21.55C254.734 21.55 259.634 22.75 263.634 25.15C267.634 27.55 270.668 30.7834 272.734 34.85C274.868 38.85 275.934 43.3834 275.934 48.45C275.934 49.5167 275.868 50.5834 275.734 51.65C275.668 52.65 275.501 53.5167 275.234 54.25H237.034C237.434 57.65 238.801 60.3834 241.134 62.45C243.468 64.5167 246.468 65.55 250.134 65.55C252.801 65.55 255.068 65.0167 256.934 63.95C258.868 62.8834 260.368 61.4167 261.434 59.55L273.434 65.25C271.768 69.25 268.834 72.4834 264.634 74.95ZM256.534 36.25C254.534 34.45 252.001 33.55 248.934 33.55C246.001 33.55 243.501 34.3834 241.434 36.05C239.434 37.7167 238.068 40.1167 237.334 43.25H260.034C259.701 40.3834 258.534 38.05 256.534 36.25ZM160.8 77.35H147.8L129 22.75H144.5L155.1 54.45L167 22.75H180L191.8 54.45L202.4 22.75H218L199.1 77.35H186.1L173.5 42.35L160.8 77.35ZM367.052 97.35H352.052V22.75H366.052V28.45C369.919 23.85 375.486 21.55 382.752 21.55C387.952 21.55 392.652 22.8167 396.852 25.35C401.052 27.8834 404.386 31.3167 406.852 35.65C409.319 39.9167 410.552 44.7167 410.552 50.05C410.552 55.3167 409.319 60.1167 406.852 64.45C404.452 68.7834 401.152 72.2167 396.952 74.75C392.752 77.2834 387.986 78.55 382.652 78.55C379.586 78.55 376.686 78.1167 373.952 77.25C371.286 76.3167 368.986 74.95 367.052 73.15V97.35ZM370.852 60.95C373.452 63.6834 376.786 65.05 380.852 65.05C384.986 65.05 388.386 63.65 391.052 60.85C393.719 58.05 395.052 54.45 395.052 50.05C395.052 45.7167 393.719 42.15 391.052 39.35C388.386 36.4834 384.986 35.05 380.852 35.05C376.786 35.05 373.452 36.45 370.852 39.25C368.319 42.05 367.052 45.65 367.052 50.05C367.052 54.5167 368.319 58.15 370.852 60.95ZM419.337 17.85H434.337V2.85002H419.337V17.85ZM419.337 77.35H434.337V22.75H419.337V77.35ZM460.314 77.35H445.314V1.65002H460.314V77.35ZM498.391 78.55C503.791 78.55 508.691 77.3167 513.091 74.85C517.491 72.3834 520.991 69.0167 523.591 64.75C526.257 60.4167 527.591 55.5167 527.591 50.05C527.591 44.5167 526.257 39.6167 523.591 35.35C520.991 31.0834 517.491 27.7167 513.091 25.25C508.691 22.7834 503.791 21.55 498.391 21.55C492.991 21.55 488.057 22.7834 483.591 25.25C479.191 27.7167 475.657 31.0834 472.991 35.35C470.391 39.6167 469.091 44.5167 469.091 50.05C469.091 55.5167 470.391 60.4167 472.991 64.75C475.657 69.0167 479.191 72.3834 483.591 74.85C488.057 77.3167 492.991 78.55 498.391 78.55ZM498.391 65.05C494.324 65.05 490.991 63.65 488.391 60.85C485.857 58.05 484.591 54.45 484.591 50.05C484.591 45.7167 485.857 42.15 488.391 39.35C490.991 36.4834 494.324 35.05 498.391 35.05C502.457 35.05 505.757 36.4834 508.291 39.35C510.824 42.15 512.091 45.7167 512.091 50.05C512.091 54.45 510.824 58.05 508.291 60.85C505.757 63.65 502.457 65.05 498.391 65.05ZM565.351 77.75C564.084 77.8834 562.884 77.95 561.751 77.95C555.151 77.95 550.017 76.1834 546.351 72.65C542.751 69.05 540.951 64.05 540.951 57.65V35.75H531.751V22.75H532.251C538.051 22.75 540.951 19.95 540.951 14.35V10.35H555.951V22.75H568.751V35.75H555.951V56.65C555.951 62.1834 559.051 64.95 565.251 64.95C566.184 64.95 567.351 64.85 568.751 64.65V77.35C567.751 77.4834 566.617 77.6167 565.351 77.75Z" fill="url(#paint0_linear_37_83)"/>
<defs>
<linearGradient id="paint0_linear_37_83" x1="137.47" y1="68.85" x2="593.97" y2="50.85" gradientUnits="userSpaceOnUse">
<stop stop-color="white"/>
<stop offset="1" stop-color="#AAAAAA"/>
</linearGradient>
</defs>
</svg>
